<svg width="320" height="320" viewBox="0 0 320 320" fill="none" xmlns="http://www.w3.org/2000/svg">
  <rect width="320" height="320" rx="24" fill="white"/>
  <rect x="20" y="20" width="280" height="280" rx="12" stroke="#0F172A" stroke-width="8"/>
  <rect x="44" y="44" width="68" height="68" fill="#0F172A"/>
  <rect x="60" y="60" width="36" height="36" fill="white"/>
  <rect x="208" y="44" width="68" height="68" fill="#0F172A"/>
  <rect x="224" y="60" width="36" height="36" fill="white"/>
  <rect x="44" y="208" width="68" height="68" fill="#0F172A"/>
  <rect x="60" y="224" width="36" height="36" fill="white"/>
  <rect x="140" y="44" width="16" height="16" fill="#0F172A"/>
  <rect x="172" y="44" width="16" height="16" fill="#0F172A"/>
  <rect x="140" y="76" width="16" height="16" fill="#0F172A"/>
  <rect x="156" y="92" width="16" height="16" fill="#0F172A"/>
  <rect x="124" y="108" width="16" height="16" fill="#0F172A"/>
  <rect x="140" y="124" width="16" height="16" fill="#0F172A"/>
  <rect x="172" y="124" width="16" height="16" fill="#0F172A"/>
  <rect x="188" y="108" width="16" height="16" fill="#0F172A"/>
  <rect x="124" y="140" width="16" height="16" fill="#0F172A"/>
  <rect x="156" y="140" width="16" height="16" fill="#0F172A"/>
  <rect x="188" y="140" width="16" height="16" fill="#0F172A"/>
  <rect x="140" y="172" width="16" height="16" fill="#0F172A"/>
  <rect x="172" y="172" width="16" height="16" fill="#0F172A"/>
  <rect x="204" y="172" width="16" height="16" fill="#0F172A"/>
  <rect x="124" y="188" width="16" height="16" fill="#0F172A"/>
  <rect x="156" y="204" width="16" height="16" fill="#0F172A"/>
  <rect x="188" y="204" width="16" height="16" fill="#0F172A"/>
  <rect x="220" y="204" width="16" height="16" fill="#0F172A"/>
  <rect x="140" y="236" width="16" height="16" fill="#0F172A"/>
  <rect x="172" y="236" width="16" height="16" fill="#0F172A"/>
  <text x="160" y="292" text-anchor="middle" font-family="Arial, sans-serif" font-size="18" fill="#475569">Replace with real QR</text>
</svg>
